<?xml version="1.0" encoding="UTF-8"?>
<svg id="Layer_2" data-name="Layer 2" xmlns="http://www.w3.org/2000/svg" viewBox="0 0 600.1 148.6">
  <defs>
    <style>
      .cls-1, .cls-2 {
        fill: #24292e;
        stroke-width: 0px;
      }

      .cls-2 {
        fill-rule: evenodd;
      }
    </style>
  </defs>
  <g id="layer">
    <path class="cls-1" d="M367.9,114.5h-.2c.1,0,.1.1.2.1h.1l-.1-.1ZM367.9,114.6c-.8,0-2.9.4-5.1.4-6.9,0-9.3-3.2-9.3-7.4v-27.8h14.1c.8,0,1.4-.7,1.4-1.7v-15.1c0-.8-.7-1.5-1.4-1.5h-14.1v-18.8c0-.7-.5-1.1-1.3-1.1h-19.2c-.8,0-1.2.5-1.2,1.1v19.3s-9.7,2.4-10.3,2.5c-.7.2-1.1.8-1.1,1.5v12.1c0,1,.7,1.7,1.5,1.7h9.8v29.2c0,21.7,15.1,23.9,25.4,23.9,4.7,0,10.4-1.5,11.3-2,.5-.2.8-.8.8-1.4v-13.3c0-.8-.5-1.4-1.3-1.6h0ZM578.5,95.1c0-16.1-6.5-18.2-13.3-17.5-5.3.3-9.6,3-9.6,3v31.3s4.3,3,10.8,3.2c9.1.2,12.1-3.1,12.1-20h0ZM600.1,93.7c0,30.5-9.9,39.2-27.1,39.2-14.6,0-22.4-7.4-22.4-7.4,0,0-.3,4.1-.8,4.6-.3.5-.7.7-1.3.7h-13.1c-.9,0-1.7-.7-1.7-1.5l.2-98.7c0-.8.7-1.5,1.5-1.5h18.9c.8,0,1.5.7,1.5,1.5v33.5s7.3-4.7,18-4.7l-.1-.2c10.6,0,26.4,4,26.4,34.5h0ZM522.6,61.6h-18.7c-1,0-1.5.7-1.5,1.7v48.3s-4.9,3.4-11.6,3.4-8.6-3-8.6-9.7v-42.2c0-.8-.7-1.5-1.5-1.5h-19c-.8,0-1.5.7-1.5,1.5v45.5c0,19.5,10.9,24.4,25.9,24.4,12.4,0,22.4-6.8,22.4-6.8,0,0,.5,3.5.7,4,.2.4.8.8,1.4.8h11.9c1,0,1.5-.7,1.5-1.5l.2-66.4c.1-.8-.7-1.5-1.6-1.5h0ZM312,61.5h-18.9c-.8,0-1.5.8-1.5,1.8v65.2c0,1.8,1.2,2.4,2.7,2.4h17.1c1.8,0,2.2-.8,2.2-2.4V63c-.1-.8-.8-1.5-1.6-1.5h0ZM302.6,31.4c-6.8,0-12.3,5.4-12.3,12.3s5.4,12.3,12.3,12.3,12.1-5.4,12.1-12.3-5.4-12.3-12.1-12.3h0ZM449.2,29.2h-18.8c-.8,0-1.5.7-1.5,1.5v36.3h-29.4V30.7c0-.8-.7-1.5-1.5-1.5h-18.9c-.8,0-1.5.7-1.5,1.5v98.7c0,.8.8,1.5,1.5,1.5h18.9c.8,0,1.5-.7,1.5-1.5v-42.2h29.4l-.2,42.2c0,.8.7,1.5,1.5,1.5h18.9c.8,0,1.5-.7,1.5-1.5V30.7c.1-.8-.6-1.5-1.4-1.5h0ZM281.5,72.9v51c0,.3-.1,1-.5,1.1,0,0-11.1,7.9-29.4,7.9-22.1,0-48.4-6.9-48.4-52.6s22.9-55.1,45.3-55c19.4,0,27.2,4.4,28.4,5.2.3.5.5.8.5,1.2l-3.6,15.9c0,.8-.8,1.8-1.8,1.5-3.2-1-8-2.9-19.3-2.9-13.1,0-27.1,3.7-27.1,33.2s13.3,32.9,22.9,32.9c8.2,0,11.1-1,11.1-1v-20.4h-13.1c-1,0-1.7-.7-1.7-1.5v-16.4c0-.8.7-1.5,1.7-1.5h33.3c1-.1,1.7.6,1.7,1.4h0Z"/>
    <path class="cls-2" d="M76.2,0C34.1,0,0,34.1,0,76.2c0,33.7,21.8,62.2,52.1,72.3,3.8.6,5.3-1.6,5.3-3.6,0-1.8-.1-7.8-.1-14.2-19.1,3.5-24.1-4.7-25.6-8.9-.9-2.2-4.6-9-7.8-10.8-2.7-1.4-6.5-5-.1-5.1,6-.1,10.3,5.5,11.7,7.8,6.9,11.5,17.8,8.3,22.2,6.3.7-4.9,2.7-8.3,4.9-10.2-16.9-1.9-34.7-8.5-34.7-37.6,0-8.3,3-15.2,7.8-20.5-.8-1.9-3.4-9.7.8-20.2,0,0,6.4-2,21,7.8,6.1-1.7,12.6-2.6,19-2.6s12.9.9,19,2.6c14.6-9.9,20.9-7.8,20.9-7.8,4.2,10.5,1.5,18.3.8,20.2,4.9,5.3,7.8,12.1,7.8,20.5,0,29.2-17.8,35.7-34.8,37.6,2.8,2.4,5.2,6.9,5.2,14.1,0,10.2-.1,18.4-.1,20.9,0,2,1.4,4.4,5.2,3.6,31-10.5,51.9-39.6,51.9-72.3C152.4,34.1,118.3,0,76.2,0h0Z"/>
  </g>
</svg>