<?xml version="1.0" encoding="UTF-8"?>
<svg id="Layer_2" data-name="Layer 2" xmlns="http://www.w3.org/2000/svg" viewBox="0 0 250 61.91">
  <defs>
    <style>
      .cls-1, .cls-2 {
        fill: #24292e;
        stroke-width: 0px;
      }

      .cls-2 {
        fill-rule: evenodd;
      }
    </style>
  </defs>
  <g id="layer">
    <path class="cls-1" d="M153.27,47.7h-.08s.04.04.08.04h.04-.04v-.04ZM153.27,47.74c-.33,0-1.21.17-2.12.17-2.87,0-3.87-1.33-3.87-3.08v-11.58h5.87c.33,0,.58-.29.58-.71v-6.29c0-.33-.29-.62-.58-.62h-5.87v-7.83c0-.29-.21-.46-.54-.46h-8c-.33,0-.5.21-.5.46v8.04s-4.04,1-4.29,1.04c-.29.08-.46.33-.46.62v5.04c0,.42.29.71.62.71h4.08v12.16c0,9.04,6.29,9.96,10.58,9.96s4.33-.62,4.71-.83c.21-.08.33-.33.33-.58v-5.54c0-.33-.21-.58-.54-.67h0ZM241,39.62c0-6.71-2.71-7.58-5.54-7.29-2.21.12-4,1.25-4,1.25v13.04s1.79,1.25,4.5,1.33c3.79.08,5.04-1.29,5.04-8.33h0ZM250,39.04c0,12.71-4.12,16.33-11.29,16.33s-9.33-3.08-9.33-3.08c0,0-.12,1.71-.33,1.92-.12.21-.29.29-.54.29h-5.46c-.37,0-.71-.29-.71-.62l.08-41.12c0-.33.29-.62.62-.62h7.87c.33,0,.62.29.62.62v13.96s3.04-1.96,7.5-1.96v-.08c4.37,0,10.96,1.67,10.96,14.37h0ZM217.71,25.66h-7.79c-.42,0-.62.29-.62.71v20.12s-2.04,1.42-4.83,1.42-3.58-1.25-3.58-4.04v-17.58c0-.33-.29-.62-.62-.62h-7.92c-.33,0-.62.29-.62.62v18.96c0,8.12,4.54,10.16,10.79,10.16s9.33-2.83,9.33-2.83c0,0,.21,1.46.29,1.67.08.17.33.33.58.33h4.96c.42,0,.62-.29.62-.62l.08-27.66c0-.33-.29-.62-.67-.62h0ZM129.98,25.62h-7.87c-.33,0-.62.33-.62.75v27.16c0,.75.5,1,1.12,1h7.12c.75,0,.92-.33.92-1v-27.29c-.04-.33-.33-.62-.67-.62h0ZM126.06,13.08c-2.83,0-5.12,2.25-5.12,5.12s2.25,5.12,5.12,5.12,5.04-2.25,5.04-5.12-2.25-5.12-5.04-5.12h0ZM187.14,12.16h-7.83c-.33,0-.62.29-.62.62v15.12h-12.25v-15.12c0-.33-.29-.62-.62-.62h-7.87c-.33,0-.62.29-.62.62v41.12c0,.33.33.62.62.62h7.87c.33,0,.62-.29.62-.62v-17.58h12.25l-.08,17.58c0,.33.29.62.62.62h7.87c.33,0,.62-.29.62-.62V12.79c.04-.33-.25-.62-.58-.62h0ZM117.27,30.37v21.25c0,.12-.04.42-.21.46,0,0-4.62,3.29-12.25,3.29s-20.16-2.87-20.16-21.91,9.54-22.95,18.87-22.91c8.08,0,11.33,1.83,11.83,2.17.12.21.21.33.21.5l-1.5,6.62c0,.33-.33.75-.75.62-1.33-.42-3.33-1.21-8.04-1.21s-11.29,1.54-11.29,13.83,5.54,13.71,9.54,13.71,4.62-.42,4.62-.42v-8.5h-5.46c-.42,0-.71-.29-.71-.62v-6.83c0-.33.29-.62.71-.62h13.87c.42-.04.71.25.71.58h0Z"/>
    <path class="cls-2" d="M31.74,0C14.21,0,0,14.21,0,31.74s9.08,25.91,21.7,30.12c1.58.25,2.21-.67,2.21-1.5v-5.92c-7.96,1.46-10.04-1.96-10.66-3.71-.37-.92-1.92-3.75-3.25-4.5-1.12-.58-2.71-2.08,0-2.12,2.5-.04,4.29,2.29,4.87,3.25,2.87,4.79,7.42,3.46,9.25,2.62.29-2.04,1.12-3.46,2.04-4.25-7.04-.79-14.46-3.54-14.46-15.66s1.25-6.33,3.25-8.54c-.33-.79-1.42-4.04.33-8.42,0,0,2.67-.83,8.75,3.25,2.54-.71,5.25-1.08,7.92-1.08s5.37.37,7.92,1.08c6.08-4.12,8.71-3.25,8.71-3.25,1.75,4.37.62,7.62.33,8.42,2.04,2.21,3.25,5.04,3.25,8.54,0,12.16-7.42,14.87-14.5,15.66,1.17,1,2.17,2.87,2.17,5.87v8.71c0,1.04.58,1.83,2.17,1.5,12.91-4.37,21.62-16.5,21.62-30.12S49.41,0,31.87,0h-.12Z"/>
  </g>
</svg>