<?xml version="1.0" encoding="UTF-8"?>
<svg id="Layer_2" data-name="Layer 2" xmlns="http://www.w3.org/2000/svg" viewBox="0 0 100 100">
  <defs>
    <style>
      .cls-1 {
        fill: #007ebb;
      }

      .cls-1, .cls-2 {
        fill-rule: evenodd;
        stroke-width: 0px;
      }

      .cls-2 {
        fill: #fff;
      }
    </style>
  </defs>
  <g id="Layer_1-2" data-name="Layer 1">
    <g>
      <path class="cls-1" d="M11.11,100h77.78c6.14,0,11.11-4.97,11.11-11.11V11.11c0-6.14-4.97-11.11-11.11-11.11H11.11C4.97,0,0,4.97,0,11.11v77.78c0,6.14,4.97,11.11,11.11,11.11Z"/>
      <path class="cls-2" d="M86.11,86.11h-14.84v-25.27c0-6.93-2.63-10.8-8.12-10.8-5.97,0-9.08,4.03-9.08,10.8v25.27h-14.3v-48.15h14.3v6.49s4.3-7.96,14.52-7.96,17.52,6.24,17.52,19.13v30.48ZM22.71,31.66c-4.87,0-8.82-3.98-8.82-8.88s3.95-8.88,8.82-8.88,8.82,3.98,8.82,8.88-3.94,8.88-8.82,8.88ZM15.32,86.11h14.91v-48.15h-14.91v48.15Z"/>
    </g>
  </g>
</svg>