<?xml version="1.0" encoding="UTF-8"?>
<svg id="Layer_2" data-name="Layer 2" xmlns="http://www.w3.org/2000/svg" viewBox="0 0 100 97.53">
  <defs>
    <style>
      .cls-1 {
        fill: #1b1f23;
        fill-rule: evenodd;
        stroke-width: 0px;
      }
    </style>
  </defs>
  <g id="Layer_1-2" data-name="Layer 1">
    <path class="cls-1" d="M50,0C22.37,0,0,22.37,0,50c0,22.12,14.31,40.81,34.19,47.44,2.5.44,3.44-1.06,3.44-2.38,0-1.19-.06-5.12-.06-9.31-12.56,2.31-15.81-3.06-16.81-5.88-.56-1.44-3-5.87-5.12-7.06-1.75-.94-4.25-3.25-.06-3.31,3.94-.06,6.75,3.62,7.69,5.12,4.5,7.56,11.69,5.44,14.56,4.13.44-3.25,1.75-5.44,3.19-6.69-11.12-1.25-22.75-5.56-22.75-24.69,0-5.44,1.94-9.94,5.12-13.44-.5-1.25-2.25-6.37.5-13.25,0,0,4.19-1.31,13.75,5.13,4-1.13,8.25-1.69,12.5-1.69s8.5.56,12.5,1.69c9.56-6.5,13.75-5.13,13.75-5.13,2.75,6.87,1,12,.5,13.25,3.19,3.5,5.12,7.94,5.12,13.44,0,19.19-11.69,23.44-22.81,24.69,1.81,1.56,3.37,4.56,3.37,9.25,0,6.69-.06,12.06-.06,13.75,0,1.31.94,2.88,3.44,2.38,19.75-6.63,34.06-25.38,34.06-47.44C100,22.37,77.63,0,50,0Z"/>
  </g>
</svg>