<?xml version="1.0" encoding="UTF-8"?>
<svg id="Layer_2" data-name="Layer 2" xmlns="http://www.w3.org/2000/svg" viewBox="0 0 287.86 76.25">
  <defs>
    <style>
      .cls-1 {
        fill: #069;
      }

      .cls-1, .cls-2, .cls-3 {
        stroke-width: 0px;
      }

      .cls-2 {
        fill: #fff;
      }

      .cls-2, .cls-3 {
        fill-rule: evenodd;
      }

      .cls-3 {
        fill: #000;
      }
    </style>
  </defs>
  <g id="svg3070">
    <g id="layer1">
      <g id="g3019">
        <path id="path14" class="cls-1" d="M212.1,5.46c0-3.02,2.51-5.46,5.6-5.46h64.57c3.09,0,5.6,2.45,5.6,5.46v65.32c0,3.02-2.51,5.46-5.6,5.46h-64.57c-3.09,0-5.6-2.45-5.6-5.46V5.46Z"/>
        <path id="path16" class="cls-3" d="M0,63.87h31.62v-10.38H11.44V13.88H0s0,49.99,0,49.99Z"/>
        <path id="path18" class="cls-3" d="M47.63,63.87V29.44h-11.44v34.43h11.44ZM41.91,24.74c3.99,0,6.47-2.64,6.47-5.95-.07-3.38-2.48-5.95-6.4-5.95s-6.47,2.57-6.47,5.95,2.48,5.95,6.32,5.95h.07Z"/>
        <path id="path20" class="cls-3" d="M52.94,63.87h11.44v-19.23c0-1.03.07-2.06.38-2.79.83-2.05,2.71-4.18,5.87-4.18,4.14,0,5.8,3.16,5.8,7.78v18.42h11.44v-19.74c0-10.58-5.65-15.5-13.18-15.5-6.17,0-8.88,3.45-10.39,5.8h.08v-4.99h-11.44c.15,3.23,0,34.43,0,34.43h0Z"/>
        <path id="path22" class="cls-3" d="M104.02,13.88h-11.44v49.99h11.44v-11.16l2.86-3.6,8.96,14.76h14.08l-15.06-21.37,13.18-14.54h-13.78s-9.41,13.01-10.24,14.55V13.88h0Z"/>
        <path id="path24" class="cls-3" d="M160.52,49.51c.15-.88.38-2.58.38-4.5,0-8.9-4.52-17.94-16.41-17.94-12.72,0-18.6,10.06-18.6,19.19,0,11.29,7.15,18.34,19.65,18.34,4.97,0,9.56-.73,13.33-2.28l-1.51-7.56c-3.09,1.02-6.25,1.54-10.16,1.54-5.35,0-10.01-2.19-10.39-6.87l23.72.07h0ZM136.73,41.76c.3-2.94,2.26-7.27,7.15-7.27,5.19,0,6.4,4.63,6.4,7.27h-13.55Z"/>
        <path id="path26" class="cls-3" d="M189.14,13.88v17.3h-.15c-1.66-2.42-5.12-4.04-9.71-4.04-8.81,0-16.56,7.05-16.49,19.09,0,11.16,7,18.43,15.74,18.43,4.74,0,9.26-2.06,11.52-6.02h.23l.45,5.22h10.16c-.15-2.42-.3-6.61-.3-10.72V13.88h-11.44,0ZM189.14,47.93c0,.88-.08,1.76-.23,2.5-.68,3.16-3.39,5.36-6.7,5.36-4.74,0-7.83-3.82-7.83-9.84,0-5.65,2.64-10.21,7.9-10.21,3.54,0,6.02,2.42,6.7,5.43.15.66.15,1.4.15,2.06v4.7h0Z"/>
        <path id="path28" class="cls-2" d="M235.06,63.83V29.4h-11.44v34.43h11.44ZM229.34,24.7c3.99,0,6.47-2.64,6.47-5.95-.07-3.38-2.48-5.95-6.4-5.95s-6.47,2.57-6.47,5.95,2.48,5.95,6.32,5.95h.07Z"/>
        <path id="path30" class="cls-2" d="M241.4,63.83h11.44v-19.23c0-1.03.07-2.06.38-2.79.83-2.06,2.71-4.19,5.87-4.19,4.14,0,5.8,3.16,5.8,7.79v18.42h11.44v-19.74c0-10.58-5.65-15.5-13.18-15.5-6.17,0-8.88,3.45-10.39,5.8h.08v-4.99h-11.44c.15,3.23,0,34.43,0,34.43h0Z"/>
      </g>
    </g>
  </g>
</svg>