<?xml version="1.0" encoding="utf-8"?>
<!-- Generator: Adobe Illustrator 28.1.0, SVG Export Plug-In . SVG Version: 6.00 Build 0)  -->
<svg version="1.1" id="Layer_2_00000176015488643060013340000003305324339162459011_"
	 xmlns="http://www.w3.org/2000/svg" xmlns:xlink="http://www.w3.org/1999/xlink" x="0px" y="0px" viewBox="0 0 1591 839"
	 style="enable-background:new 0 0 1591 839;" xml:space="preserve">
<g id="Layer_2-2">
	<g id="Layer_1-2">
		<g>
			<g>
				
					<image style="overflow:visible;opacity:0.75;enable-background:new    ;" width="1591" height="672" xlink:href="A427CE04269DA4D.png" >
				</image>
				<path d="M1188.9,479.5c33.6,0,61.9-2,84.9-6s41.5-10.5,55.5-19.6c13.9-9.1,23.9-20.8,29.9-35s9-31.6,9-52.1V55.3h177.5v311.5
					c0,173-118.9,259.5-356.8,259.5H975.5l115.2-146.8L1188.9,479.5L1188.9,479.5z M944.4,247.3l-268,379H389.6
					c-49.5,0-95.3-7.4-137.4-22.2s-78.4-35.1-108.8-61c-30.5-25.9-54.4-56.6-71.7-92.2c-17.4-35.6-26-74.1-26-115.6
					s8.7-79.5,26-113.9c17.4-34.4,41.3-64,71.7-88.8s66.7-43.8,108.8-57.2s87.9-20,137.4-20H790L676.4,203.8H389.6
					c-23.9,0-46.1,3.4-66.6,10.2s-38.1,16.4-52.9,28.6c-14.8,12.2-26.4,26.9-35,44c-8.5,17.1-12.8,35.9-12.8,56.3
					s4.1,39.1,12.4,55.9c8.2,16.8,19.9,31.2,35,43.1c15.1,11.9,32.9,21.2,53.3,27.7c20.5,6.5,42.7,9.8,66.6,9.8h181.8l262.1-369.5
					c12-16.5,27-31.3,45.2-44.4c17.5-12.5,39.4-19,65.7-19.6h3.4c26.7,0,49.1,6.1,67,18.4c17.9,12.2,33.2,27.5,45.7,45.7
					l204.4,295.8l-2.8,0.5c-23.7,4.1-49.2,5-73.3,5h-131.4l-0.9,1.1c-3.3-4.8-6.6-9.4-9.8-13.9L944.4,247.3L944.4,247.3L944.4,247.3
					z M753.2,626.3l106.7-146.8H1024L908.8,626.3H753.2L753.2,626.3z M1003.9,479.5h-59.5H1003.9z"/>
			</g>
			<g>
				
					<image style="overflow:visible;opacity:0.75;enable-background:new    ;" width="1548" height="116" xlink:href="A427CE04269DA4F.png"  transform="matrix(1 0 0 1 19 723)">
				</image>
				<g>
					<path d="M92.5,811.8c-3.1,1.5-9.3,3.1-17.2,3.1c-18.4,0-32.3-11.6-32.3-33s13.9-34.3,34.1-34.3c8.1,0,13.3,1.7,15.5,2.9l-2,6.9
						c-3.2-1.5-7.8-2.7-13.2-2.7c-15.3,0-25.5,9.8-25.5,26.9c0,16,9.2,26.3,25.1,26.3c5.1,0,10.4-1.1,13.8-2.7L92.5,811.8
						C92.5,811.8,92.5,811.8,92.5,811.8z"/>
					<path d="M130.9,748.6v27.3h31.6v-27.3h8.5v65.3h-8.5v-30.6h-31.6v30.6h-8.4v-65.3H130.9z"/>
					<path d="M205.1,749.5c4.3-0.9,10.4-1.4,16.2-1.4c9,0,14.8,1.7,18.9,5.3c3.3,2.9,5.1,7.4,5.1,12.4c0,8.6-5.4,14.3-12.3,16.7v0.3
						c5,1.8,8,6.4,9.6,13.2c2.1,9.1,3.7,15.4,5,17.9h-8.7c-1.1-1.8-2.5-7.5-4.4-15.6c-1.9-9-5.4-12.4-13.1-12.7h-7.9v28.3h-8.4
						L205.1,749.5L205.1,749.5L205.1,749.5z M213.5,779.2h8.6c9,0,14.7-4.9,14.7-12.4c0-8.4-6.1-12.1-15-12.2c-4.1,0-7,0.4-8.3,0.8
						V779.2L213.5,779.2L213.5,779.2z"/>
					<path d="M285,748.6v65.3h-8.4v-65.3H285z"/>
					<path d="M318,803.7c3.8,2.3,9.3,4.3,15.1,4.3c8.6,0,13.7-4.6,13.7-11.2c0-6.1-3.5-9.6-12.3-13c-10.7-3.8-17.2-9.3-17.2-18.5
						c0-10.2,8.4-17.7,21.1-17.7c6.7,0,11.5,1.5,14.4,3.2l-2.3,6.9c-2.1-1.2-6.5-3.1-12.4-3.1c-8.9,0-12.3,5.3-12.3,9.8
						c0,6.1,4,9.1,13,12.6c11,4.3,16.7,9.6,16.7,19.2c0,10.1-7.5,18.8-22.9,18.8c-6.3,0-13.2-1.8-16.7-4.2L318,803.7L318,803.7
						L318,803.7z"/>
					<path d="M398.7,755.8h-19.9v-7.2h48.4v7.2h-20v58.1h-8.5V755.8L398.7,755.8z"/>
					<path d="M507.1,780.6c0,22.5-13.7,34.4-30.3,34.4s-29.4-13.4-29.4-33.2s12.9-34.3,30.3-34.3S507.1,761.2,507.1,780.6
						L507.1,780.6z M456.4,781.7c0,14,7.6,26.5,20.8,26.5s20.9-12.3,20.9-27.1c0-13-6.8-26.6-20.8-26.6S456.4,767.3,456.4,781.7
						L456.4,781.7L456.4,781.7z"/>
					<path d="M537.4,749.4c4.1-0.7,9.4-1.3,16.2-1.3c8.3,0,14.4,1.9,18.3,5.4c3.6,3.1,5.7,7.8,5.7,13.7s-1.7,10.6-5,14
						c-4.5,4.8-11.7,7.2-20,7.2c-2.5,0-4.9-0.1-6.8-0.6v26.1h-8.4V749.4L537.4,749.4L537.4,749.4z M545.8,780.9
						c1.8,0.5,4.2,0.7,7,0.7c10.2,0,16.4-4.9,16.4-14s-6.1-12.8-15.4-12.8c-3.7,0-6.5,0.3-8,0.7V780.9L545.8,780.9L545.8,780.9z"/>
					<path d="M616.8,748.6v27.3h31.6v-27.3h8.5v65.3h-8.5v-30.6h-31.6v30.6h-8.4v-65.3H616.8z"/>
					<path d="M724.8,783.3h-25.4v23.6h28.3v7.1H691v-65.3h35.3v7.1h-26.8v20.6h25.4L724.8,783.3L724.8,783.3L724.8,783.3z"/>
					<path d="M758,749.5c4.3-0.9,10.4-1.4,16.2-1.4c9,0,14.8,1.7,18.9,5.3c3.3,2.9,5.1,7.4,5.1,12.4c0,8.6-5.4,14.3-12.3,16.7v0.3
						c5,1.8,8,6.4,9.6,13.2c2.1,9.1,3.7,15.4,5,17.9h-8.7c-1.1-1.8-2.5-7.5-4.4-15.6c-1.9-9-5.4-12.4-13.1-12.7h-8v28.3H758V749.5
						L758,749.5z M766.4,779.2h8.6c9,0,14.7-4.9,14.7-12.4c0-8.4-6.1-12.1-15-12.2c-4.1,0-7,0.4-8.3,0.8V779.2L766.4,779.2
						L766.4,779.2z"/>
					<path d="M880,793.4l-6.8,20.5h-8.7l22.2-65.3h10.2l22.3,65.3h-9l-7-20.5H880z M901.5,786.8l-6.4-18.8
						c-1.5-4.3-2.4-8.1-3.4-11.9h-0.2c-1,3.9-2,7.8-3.3,11.8l-6.4,18.9H901.5L901.5,786.8z"/>
					<path d="M948.2,748.6h8.4v58.3h27.9v7.1h-36.3L948.2,748.6L948.2,748.6L948.2,748.6z"/>
					<path d="M1023.9,793.4l-6.8,20.5h-8.7l22.2-65.3h10.2l22.2,65.3h-9l-7-20.5H1023.9L1023.9,793.4z M1045.3,786.8l-6.4-18.8
						c-1.5-4.3-2.4-8.1-3.4-11.9h-0.2c-1,3.9-2,7.8-3.3,11.8l-6.4,18.9H1045.3L1045.3,786.8z"/>
					<path d="M1092,813.9v-65.3h9.2l20.9,33c4.8,7.7,8.6,14.5,11.7,21.2l0.2-0.1c-0.8-8.7-1-16.7-1-26.8v-27.3h7.9v65.3h-8.5
						l-20.7-33.2c-4.6-7.3-8.9-14.7-12.2-21.8l-0.3,0.1c0.5,8.2,0.7,16.1,0.7,26.9v28L1092,813.9L1092,813.9z"/>
					<path d="M1228.5,748.6h8.4v43.7c0,17.3-8.5,22.7-19.8,22.7c-3.1,0-6.9-0.7-9-1.5l1.3-6.9c1.7,0.7,4.3,1.3,7.1,1.3
						c7.6,0,12-3.4,12-16.2V748.6z"/>
					<path d="M1326.2,780.6c0,22.5-13.7,34.4-30.3,34.4s-29.4-13.4-29.4-33.2s12.9-34.3,30.3-34.3S1326.2,761.2,1326.2,780.6
						L1326.2,780.6z M1275.5,781.7c0,14,7.6,26.5,20.8,26.5s20.9-12.3,20.9-27.1c0-13-6.8-26.6-20.8-26.6S1275.5,767.3,1275.5,781.7
						L1275.5,781.7L1275.5,781.7z"/>
					<path d="M1356.5,813.9v-65.3h9.2l20.9,33c4.8,7.7,8.6,14.5,11.7,21.2l0.2-0.1c-0.8-8.7-1-16.7-1-26.8v-27.3h7.9v65.3h-8.5
						l-20.7-33.2c-4.6-7.3-8.9-14.7-12.2-21.8l-0.3,0.1c0.5,8.2,0.7,16.1,0.7,26.9v28L1356.5,813.9L1356.5,813.9z"/>
					<path d="M1473.5,783.3h-25.4v23.6h28.3v7.1h-36.7v-65.3h35.3v7.1h-26.8v20.6h25.4L1473.5,783.3L1473.5,783.3L1473.5,783.3z"/>
					<path d="M1505.6,803.7c3.8,2.3,9.3,4.3,15.1,4.3c8.6,0,13.7-4.6,13.7-11.2c0-6.1-3.5-9.6-12.3-13c-10.7-3.8-17.2-9.3-17.2-18.5
						c0-10.2,8.4-17.7,21.1-17.7c6.7,0,11.5,1.5,14.4,3.2l-2.3,6.9c-2.1-1.2-6.5-3.1-12.4-3.1c-8.9,0-12.3,5.3-12.3,9.8
						c0,6.1,4,9.1,13,12.6c11.1,4.3,16.7,9.6,16.7,19.2c0,10.1-7.5,18.8-22.9,18.8c-6.3,0-13.2-1.8-16.7-4.2L1505.6,803.7
						L1505.6,803.7L1505.6,803.7z"/>
				</g>
			</g>
		</g>
	</g>
</g>
</svg>
